<svg xmlns="http://www.w3.org/2000/svg" viewBox="0 0 127.39 111.91"><defs><style>.cls-1{fill:#dc143c;}.cls-2{fill:#fff;}</style></defs><title>Asset 2</title><g id="Layer_2" data-name="Layer 2"><g id="Layer_1-2" data-name="Layer 1"><path class="cls-1" d="M53,6.13l-51.23,87a12.44,12.44,0,0,0,10.73,18.76H114.92a12.45,12.45,0,0,0,10.73-18.76l-51.23-87A12.45,12.45,0,0,0,53,6.13Z"/><path class="cls-2" d="M57.61,95.49a7.78,7.78,0,0,1-2.48-5.83,7.57,7.57,0,0,1,2.44-5.74,8.67,8.67,0,0,1,6.23-2.3A8.67,8.67,0,0,1,70,83.92a7.57,7.57,0,0,1,2.44,5.74A7.78,7.78,0,0,1,70,95.49a9.21,9.21,0,0,1-12.38,0ZM55.4,33.91H72.2L69.4,75.2H58.2Z"/></g></g></svg>