<svg xmlns="http://www.w3.org/2000/svg" xmlns:xlink="http://www.w3.org/1999/xlink" viewBox="0 0 60.08 53.02"><defs><style>.cls-1{fill:url(#New_Gradient_Swatch_copy);}.cls-2{fill:url(#New_Gradient_Swatch_1);}.cls-3{fill:url(#New_Gradient_Swatch_1-2);}.cls-4{fill:#fff;}</style><linearGradient id="New_Gradient_Swatch_copy" x1="21.37" y1="46.22" x2="46.14" y2="21.45" gradientUnits="userSpaceOnUse"><stop offset="0" stop-color="#00adee"/><stop offset="1" stop-color="#00bcf1"/></linearGradient><linearGradient id="New_Gradient_Swatch_1" x1="49.1" y1="20.44" x2="54.9" y2="14.64" gradientUnits="userSpaceOnUse"><stop offset="0" stop-color="#fcb627"/><stop offset="1" stop-color="#ffcd22"/></linearGradient><linearGradient id="New_Gradient_Swatch_1-2" x1="42.34" y1="5" x2="45.73" y2="1.61" xlink:href="#New_Gradient_Swatch_1"/></defs><title>Asset 11</title><g id="Layer_2" data-name="Layer 2"><g id="Layer_1-2" data-name="Layer 1"><g id="Clear_Night" data-name="Clear Night"><path class="cls-1" d="M37.76,53a23.18,23.18,0,0,1-6.4-45.46,1.19,1.19,0,0,1,1.19.31,1.21,1.21,0,0,1,.31,1.19A20.72,20.72,0,0,0,52.8,35.55a20.94,20.94,0,0,0,5.73-.82,1.24,1.24,0,0,1,1.2.31,1.19,1.19,0,0,1,.3,1.19A23.26,23.26,0,0,1,37.76,53Z"/><path class="cls-2" d="M52.79,22c-.43,1.59-1.14,1.59-1.57,0a5.84,5.84,0,0,0-3.68-3.67c-1.58-.43-1.58-1.14,0-1.57a5.82,5.82,0,0,0,3.68-3.67c.43-1.59,1.14-1.59,1.57,0a5.78,5.78,0,0,0,3.67,3.67c1.59.43,1.59,1.14,0,1.57A5.8,5.8,0,0,0,52.79,22Z"/><path class="cls-3" d="M44.5,5.91c-.26.93-.67.93-.92,0a3.38,3.38,0,0,0-2.15-2.15c-.93-.25-.93-.67,0-.92A3.39,3.39,0,0,0,43.58.7c.25-.93.66-.93.92,0a3.4,3.4,0,0,0,2.14,2.14c.93.25.93.67,0,.92A3.39,3.39,0,0,0,44.5,5.91Z"/></g><path class="cls-4" d="M28.89,46.78a6.7,6.7,0,0,0,0-13.39h-.07A10.69,10.69,0,0,0,8.45,30.21H8.29a8.29,8.29,0,1,0,0,16.57"/></g></g></svg>